<?xml version="1.0" encoding="utf-8"?>
<!-- Generator: Adobe Illustrator 18.0.0, SVG Export Plug-In . SVG Version: 6.00 Build 0)  -->
<!DOCTYPE svg PUBLIC "-//W3C//DTD SVG 1.1//EN" "http://www.w3.org/Graphics/SVG/1.1/DTD/svg11.dtd">
<svg version="1.1" id="Layer_1" xmlns="http://www.w3.org/2000/svg" xmlns:xlink="http://www.w3.org/1999/xlink" x="0px" y="0px"
	 viewBox="0 0 195.8 44.5" enable-background="new 0 0 195.8 44.5" xml:space="preserve">
<g>
	<polyline fill="#DA2128" points="27.2,31.5 30.4,37 17.9,37 17.8,37 14.7,42.5 21,42.5 40,42.5 36.8,37 33.7,31.5 33.7,31.5 
		30.5,26 24.2,26 24.1,26.1 21,31.5 21.1,31.5 21.1,31.5 27.2,31.5 	"/>
	<polygon points="21,9.6 2,42.5 8.3,42.5 24.2,15.1 	"/>
</g>
<g>
	<path fill="#FFFFFF" d="M56.4,10.1h3.4l10.7,19.2h-3.5l-2.4-4.7h-13l-2.5,4.7h-3.2L56.4,10.1z M63.2,22.1L58,12.3l-5.2,9.8H63.2z"
		/>
	<path fill="#FFFFFF" d="M97.1,19.4l-9.4-9.3h4.6l6.7,7.2l6.3-7.2h4l-8.4,9l10.3,10.2h-4.6l-7.6-8.2l-7.1,8.2h-4L97.1,19.4z"/>
	<path fill="#FFFFFF" d="M130.9,10.1h18.4v2.6h-15.3V18h9.3v2.5h-9.3v6.1h15.4v2.6h-18.6V10.1z"/>
	<path fill="#FFFFFF" d="M173.8,12.7v5.3h12.1c0.9,0,1.6,0.1,2.2,0.2c0.6,0.1,1,0.4,1.4,0.7c0.3,0.3,0.6,0.8,0.7,1.4
		c0.1,0.6,0.2,1.3,0.2,2.2v2.2c0,0.9-0.1,1.6-0.2,2.2c-0.1,0.6-0.4,1-0.7,1.4s-0.8,0.6-1.4,0.7c-0.6,0.1-1.3,0.2-2.2,0.2h-11.2
		c-0.9,0-1.6-0.1-2.2-0.2c-0.6-0.1-1-0.4-1.4-0.7c-0.3-0.3-0.6-0.8-0.7-1.4c-0.1-0.6-0.2-1.3-0.2-2.2v-0.5l3-0.7v3.1h14.3v-5.8h-12
		c-0.9,0-1.6-0.1-2.2-0.2c-0.6-0.1-1-0.4-1.4-0.7s-0.6-0.8-0.7-1.4s-0.2-1.3-0.2-2.2v-1.7c0-0.9,0.1-1.6,0.2-2.2
		c0.1-0.6,0.4-1,0.7-1.4s0.8-0.6,1.4-0.7c0.6-0.1,1.3-0.2,2.2-0.2h10.2c0.8,0,1.5,0.1,2,0.2c0.6,0.1,1,0.3,1.4,0.7
		c0.4,0.3,0.6,0.8,0.8,1.3c0.2,0.5,0.3,1.2,0.3,2v0.4l-2.7,0.8v-2.8H173.8z"/>
</g>
<g>
	<path fill="#FFFFFF" d="M46.5,35.6h5.2c0.5,0,0.8,0.1,1,0.3c0.2,0.2,0.3,0.5,0.3,1v0.7c0,0.1,0,0.3,0,0.4c0,0.1-0.1,0.2-0.2,0.3
		c-0.1,0.1-0.2,0.2-0.3,0.2c-0.1,0.1-0.3,0.1-0.5,0.1c0.7,0.1,1.1,0.5,1.1,1.3v0.8c0,0.8-0.6,1.3-1.8,1.3h-4.8V35.6z M52,37.1
		c0-0.2-0.1-0.4-0.2-0.5s-0.3-0.1-0.5-0.1h-3.7v1.8h3.7c0.2,0,0.4,0,0.5-0.1s0.2-0.2,0.2-0.5V37.1z M52,39.9c0-0.3-0.1-0.5-0.2-0.6
		c-0.1-0.1-0.3-0.2-0.6-0.2h-3.7v2.1h3.7c0.3,0,0.5-0.1,0.6-0.2c0.1-0.1,0.2-0.3,0.2-0.6V39.9z"/>
	<path fill="#FFFFFF" d="M56.6,41.3h3.9v-4.5h1v4c0,0.2,0,0.4-0.1,0.6c0,0.2-0.1,0.3-0.2,0.4S61,42,60.8,42s-0.4,0.1-0.6,0.1h-3.3
		c-0.2,0-0.5,0-0.6-0.1c-0.2,0-0.3-0.1-0.4-0.2c-0.1-0.1-0.2-0.2-0.2-0.4s-0.1-0.4-0.1-0.6v-4h1V41.3z"/>
	<path fill="#FFFFFF" d="M64.9,37.6V39h3.4c0.2,0,0.5,0,0.6,0.1c0.2,0,0.3,0.1,0.4,0.2c0.1,0.1,0.2,0.2,0.2,0.4
		c0,0.2,0.1,0.4,0.1,0.6v0.6c0,0.2,0,0.4-0.1,0.6s-0.1,0.3-0.2,0.4c-0.1,0.1-0.2,0.2-0.4,0.2c-0.2,0-0.4,0.1-0.6,0.1H65
		c-0.2,0-0.5,0-0.6-0.1c-0.2,0-0.3-0.1-0.4-0.2c-0.1-0.1-0.2-0.2-0.2-0.4c0-0.2-0.1-0.4-0.1-0.6v-0.1l0.9-0.2v0.8h4v-1.5h-3.4
		c-0.2,0-0.5,0-0.6-0.1s-0.3-0.1-0.4-0.2c-0.1-0.1-0.2-0.2-0.2-0.4c0-0.2-0.1-0.4-0.1-0.6v-0.5c0-0.5,0.1-0.8,0.3-1
		c0.2-0.2,0.5-0.3,1-0.3h2.9c0.5,0,0.8,0.1,1,0.2c0.2,0.2,0.3,0.5,0.3,0.9v0.1l-0.9,0.2v-0.7H64.9z"/>
	<path fill="#FFFFFF" d="M72.8,37.6V39h3.4c0.2,0,0.5,0,0.6,0.1c0.2,0,0.3,0.1,0.4,0.2c0.1,0.1,0.2,0.2,0.2,0.4
		c0,0.2,0.1,0.4,0.1,0.6v0.6c0,0.2,0,0.4-0.1,0.6s-0.1,0.3-0.2,0.4C77.1,41.9,77,42,76.8,42c-0.2,0-0.4,0.1-0.6,0.1H73
		c-0.2,0-0.5,0-0.6-0.1c-0.2,0-0.3-0.1-0.4-0.2c-0.1-0.1-0.2-0.2-0.2-0.4c0-0.2-0.1-0.4-0.1-0.6v-0.1l0.9-0.2v0.8h4v-1.5h-3.4
		c-0.2,0-0.5,0-0.6-0.1s-0.3-0.1-0.4-0.2c-0.1-0.1-0.2-0.2-0.2-0.4c0-0.2-0.1-0.4-0.1-0.6v-0.5c0-0.5,0.1-0.8,0.3-1
		c0.2-0.2,0.5-0.3,1-0.3h2.9c0.5,0,0.8,0.1,1,0.2c0.2,0.2,0.3,0.5,0.3,0.9v0.1l-0.9,0.2v-0.7H72.8z"/>
	<path fill="#FFFFFF" d="M79.8,42.1v-5.3h1v5.3H79.8z"/>
	<path fill="#FFFFFF" d="M84.1,38.8v3.3h-0.9v-5.3h0.8l3.9,3.4c0.1,0.1,0.2,0.2,0.3,0.3c0.1,0.1,0.2,0.2,0.3,0.4
		c-0.1-0.3-0.1-0.6-0.1-1v-3.2h0.9v5.3h-0.7l-3.9-3.5c-0.1-0.1-0.2-0.2-0.3-0.3c-0.1-0.1-0.2-0.2-0.3-0.4
		C84.1,38.2,84.1,38.5,84.1,38.8z"/>
	<path fill="#FFFFFF" d="M91.7,36.8H97v0.8h-4.3v1.4h2.6v0.8h-2.6v1.6h4.4v0.8h-5.4V36.8z"/>
	<path fill="#FFFFFF" d="M99.9,37.6V39h3.4c0.2,0,0.5,0,0.6,0.1c0.2,0,0.3,0.1,0.4,0.2c0.1,0.1,0.2,0.2,0.2,0.4
		c0,0.2,0.1,0.4,0.1,0.6v0.6c0,0.2,0,0.4-0.1,0.6c0,0.2-0.1,0.3-0.2,0.4c-0.1,0.1-0.2,0.2-0.4,0.2c-0.2,0-0.4,0.1-0.6,0.1h-3.2
		c-0.3,0-0.5,0-0.6-0.1c-0.2,0-0.3-0.1-0.4-0.2c-0.1-0.1-0.2-0.2-0.2-0.4c0-0.2-0.1-0.4-0.1-0.6v-0.1l0.9-0.2v0.8h4v-1.5h-3.4
		c-0.2,0-0.5,0-0.6-0.1s-0.3-0.1-0.4-0.2c-0.1-0.1-0.2-0.2-0.2-0.4c0-0.2-0.1-0.4-0.1-0.6v-0.5c0-0.5,0.1-0.8,0.3-1
		c0.2-0.2,0.5-0.3,1-0.3h2.9c0.5,0,0.8,0.1,1,0.2c0.2,0.2,0.3,0.5,0.3,0.9v0.1l-0.9,0.2v-0.7H99.9z"/>
	<path fill="#FFFFFF" d="M107.8,37.6V39h3.4c0.2,0,0.5,0,0.6,0.1c0.2,0,0.3,0.1,0.4,0.2c0.1,0.1,0.2,0.2,0.2,0.4
		c0,0.2,0.1,0.4,0.1,0.6v0.6c0,0.2,0,0.4-0.1,0.6s-0.1,0.3-0.2,0.4c-0.1,0.1-0.2,0.2-0.4,0.2c-0.2,0-0.4,0.1-0.6,0.1H108
		c-0.3,0-0.5,0-0.6-0.1c-0.2,0-0.3-0.1-0.4-0.2c-0.1-0.1-0.2-0.2-0.2-0.4c0-0.2-0.1-0.4-0.1-0.6v-0.1l0.9-0.2v0.8h4v-1.5h-3.4
		c-0.2,0-0.5,0-0.6-0.1s-0.3-0.1-0.4-0.2s-0.2-0.2-0.2-0.4c0-0.2-0.1-0.4-0.1-0.6v-0.5c0-0.5,0.1-0.8,0.3-1c0.2-0.2,0.5-0.3,1-0.3
		h2.9c0.5,0,0.8,0.1,1,0.2c0.2,0.2,0.3,0.5,0.3,0.9v0.1l-0.9,0.2v-0.7H107.8z"/>
	<path fill="#FFFFFF" d="M122.2,35.6h1.1l3.6,6.4h-1.2l-0.8-1.6h-4.3l-0.8,1.6h-1.1L122.2,35.6z M124.4,39.7l-1.7-3.3l-1.7,3.3
		H124.4z"/>
	<path fill="#FFFFFF" d="M129.5,41.3h3.9v-4.5h1v4c0,0.2,0,0.4-0.1,0.6c0,0.2-0.1,0.3-0.2,0.4s-0.2,0.2-0.4,0.2
		c-0.2,0-0.4,0.1-0.6,0.1h-3.3c-0.2,0-0.5,0-0.6-0.1c-0.2,0-0.3-0.1-0.4-0.2c-0.1-0.1-0.2-0.2-0.2-0.4c0-0.2-0.1-0.4-0.1-0.6v-4h1
		V41.3z"/>
	<path fill="#FFFFFF" d="M139.4,42.1h-1v-4.5h-2.5v-0.8h6v0.8h-2.5V42.1z"/>
	<path fill="#FFFFFF" d="M143.3,37.4c0-0.2,0.1-0.3,0.2-0.4s0.2-0.2,0.4-0.2c0.2,0,0.4-0.1,0.6-0.1h3.8c0.2,0,0.5,0,0.6,0.1
		c0.2,0,0.3,0.1,0.4,0.2s0.2,0.2,0.2,0.4c0,0.2,0.1,0.4,0.1,0.6v2.8c0,0.2,0,0.4-0.1,0.6c0,0.2-0.1,0.3-0.2,0.4
		c-0.1,0.1-0.2,0.2-0.4,0.2c-0.2,0-0.4,0.1-0.6,0.1h-3.8c-0.2,0-0.5,0-0.6-0.1c-0.2,0-0.3-0.1-0.4-0.2c-0.1-0.1-0.2-0.2-0.2-0.4
		c0-0.2-0.1-0.4-0.1-0.6v-2.8C143.2,37.8,143.3,37.6,143.3,37.4z M148.6,41.3v-3.7h-4.4v3.7H148.6z"/>
	<path fill="#FFFFFF" d="M152.8,38.2c0,0.1,0,0.2,0,0.3v3.6H152v-5.3h0.8l2.6,3.4l2.4-3.4h0.9v5.3h-0.9v-3.6c0-0.1,0-0.2,0-0.3
		c0-0.1,0-0.3,0-0.4c-0.1,0.3-0.2,0.6-0.3,0.7l-2,2.7h-0.3l-2.1-2.7c-0.1-0.1-0.2-0.2-0.2-0.3c-0.1-0.1-0.1-0.3-0.2-0.4
		C152.8,38,152.8,38.1,152.8,38.2z"/>
	<path fill="#FFFFFF" d="M163.4,36.8h0.9l3.1,5.3h-1.1l-0.7-1.2H162l-0.7,1.2h-1L163.4,36.8z M165.2,40.1l-1.4-2.5l-1.4,2.5H165.2z"
		/>
	<path fill="#FFFFFF" d="M171.6,42.1h-1v-4.5h-2.5v-0.8h6v0.8h-2.5V42.1z"/>
	<path fill="#FFFFFF" d="M175.5,42.1v-5.3h1v5.3H175.5z"/>
	<path fill="#FFFFFF" d="M178.9,37.4c0-0.2,0.1-0.3,0.2-0.4s0.2-0.2,0.4-0.2c0.2,0,0.4-0.1,0.6-0.1h3.8c0.2,0,0.5,0,0.6,0.1
		c0.2,0,0.3,0.1,0.4,0.2s0.2,0.2,0.2,0.4c0,0.2,0.1,0.4,0.1,0.6v2.8c0,0.2,0,0.4-0.1,0.6c0,0.2-0.1,0.3-0.2,0.4
		c-0.1,0.1-0.2,0.2-0.4,0.2c-0.2,0-0.4,0.1-0.6,0.1h-3.8c-0.2,0-0.5,0-0.6-0.1c-0.2,0-0.3-0.1-0.4-0.2c-0.1-0.1-0.2-0.2-0.2-0.4
		c0-0.2-0.1-0.4-0.1-0.6v-2.8C178.8,37.8,178.8,37.6,178.9,37.4z M184.2,41.3v-3.7h-4.4v3.7H184.2z"/>
	<path fill="#FFFFFF" d="M188.5,38.8v3.3h-0.9v-5.3h0.8l3.9,3.4c0.1,0.1,0.2,0.2,0.3,0.3c0.1,0.1,0.2,0.2,0.3,0.4
		c-0.1-0.3-0.1-0.6-0.1-1v-3.2h0.9v5.3h-0.7l-3.9-3.5c-0.1-0.1-0.2-0.2-0.3-0.3c-0.1-0.1-0.2-0.2-0.3-0.4
		C188.4,38.2,188.5,38.5,188.5,38.8z"/>
</g>
</svg>
